<svg width="235" height="34" viewBox="0 0 235 34" fill="none" xmlns="http://www.w3.org/2000/svg">
<g clip-path="url(#clip0_4362_61485)">
<path d="M75.9845 9.61328L67.336 32.644H60.8051L52.2012 9.61328H58.282L60.5343 15.8171C61.7506 19.6112 63.0115 23.7173 64.1832 27.5557C65.3542 23.6726 66.6151 19.6112 67.8314 15.7725L70.0837 9.61328H75.9845Z" fill="white"/>
<path d="M99.183 22.8692H81.7967C82.2014 26.9757 84.544 28.8057 87.8322 28.8057C90.5345 28.8057 92.2913 27.5558 93.1475 25.5027H98.5979C97.4266 30.1893 93.3729 33.1799 87.7875 33.1799C80.9405 33.1799 76.2109 28.4934 76.2109 21.1286C76.2109 13.8983 80.8054 9.07764 87.6972 9.07764C94.8143 9.07764 99.183 14.2106 99.183 21.5303V22.8692ZM81.8417 18.9415H93.5076C93.0575 15.6832 91.0303 13.4518 87.6518 13.4518C84.634 13.4518 82.3818 15.1478 81.8417 18.9415Z" fill="white"/>
<path d="M123.733 17.3795V32.644H118.058V18.3167C118.058 15.3708 116.572 13.9425 113.689 13.9425C111.212 13.9425 108.508 15.6388 108.508 19.7449V32.644H102.833V9.61337H108.329V12.916C109.116 11.7249 110.193 10.749 111.46 10.0782C112.727 9.40745 114.144 9.06335 115.581 9.07757C120.445 9.07757 123.733 11.8894 123.733 17.3795Z" fill="white"/>
<path d="M135.04 13.8981V26.3508C135.04 27.868 135.806 28.3591 137.698 28.3591H139.635V32.6439C138.599 32.7333 137.563 32.8223 136.662 32.8223C131.752 32.8223 129.41 31.171 129.41 26.9308V13.898H125.807V9.61326H129.41V2.91797H135.04V9.61326H139.635V13.8981H135.04Z" fill="white"/>
<path d="M163.868 9.61328V32.644H158.373V29.2963C157.586 30.5014 156.505 31.4895 155.229 32.1686C153.953 32.8476 152.524 33.1955 151.076 33.1798C146.256 33.1798 142.968 30.3676 142.968 24.8779V9.61328H148.644V23.9403C148.644 26.8862 150.085 28.3145 153.013 28.3145C155.49 28.3145 158.193 26.6185 158.193 22.5121V9.61328H163.868Z" fill="white"/>
<path d="M182.293 9.34546V14.5231H180.851C176.662 14.5231 174.139 16.5762 174.139 20.9503V32.6442H168.464V9.61356H173.96V13.7196C175.086 11.1308 177.292 9.25612 180.896 9.25612C181.363 9.24131 181.831 9.27125 182.293 9.34546Z" fill="white"/>
<path d="M206.256 22.8692H188.87C189.275 26.9757 191.617 28.8057 194.905 28.8057C197.608 28.8057 199.365 27.5558 200.221 25.5027H205.671C204.5 30.1893 200.446 33.1799 194.861 33.1799C188.014 33.1799 183.284 28.4934 183.284 21.1286C183.284 13.8983 187.879 9.07764 194.77 9.07764C201.888 9.07764 206.256 14.2106 206.256 21.5303V22.8692ZM188.915 18.9415H200.581C200.131 15.6832 198.104 13.4518 194.725 13.4518C191.707 13.4518 189.455 15.1478 188.915 18.9415Z" fill="white"/>
<path d="M208.375 25.3244H213.915C214.231 28.2253 215.717 29.2518 219.095 29.2518C222.383 29.2518 223.69 28.2253 223.69 26.4846C223.69 24.8333 222.654 24.0298 219.14 23.4497L216.483 23.0033C211.483 22.1551 208.87 19.968 208.87 16.0407C208.87 11.7112 212.294 9.07764 218.51 9.07764C225.672 9.07764 228.599 12.1572 228.779 16.8885H223.419C223.284 13.9426 221.438 13.0948 218.51 13.0948C215.762 13.0948 214.456 14.1213 214.456 15.7726C214.456 17.4689 215.807 18.1384 218.33 18.5845L221.257 19.0309C226.843 20.0127 229.32 22.0662 229.32 26.0386C229.32 30.6801 225.491 33.2689 219.005 33.2689C212.384 33.2689 208.735 30.9035 208.375 25.3244Z" fill="white"/>
<path d="M23.3139 21.1287C23.3139 28.4488 19.3049 33.18 12.9088 33.18C9.53038 33.18 7.05303 31.7517 5.47672 29.3413V32.6443H0.0263672V0.865234H5.7018V12.6038C7.2781 10.372 9.66566 9.0778 12.9088 9.0778C19.3049 9.0778 23.3139 13.809 23.3139 21.1287ZM17.5483 20.9504C17.5483 16.0851 15.2509 13.7197 11.5576 13.7197C7.86391 13.7197 5.56651 16.2638 5.56651 21.1287C5.56651 25.994 7.86391 28.5378 11.5576 28.5378C15.2509 28.5378 17.5483 25.8153 17.5483 20.9504Z" fill="white"/>
<path d="M34.4399 24.9225C34.4399 24.9225 31.4218 29.2963 29.8906 31.4387L29.0346 32.6439H22.6836L31.332 20.8607L23.1337 9.61328H29.62L30.8364 11.3093C32.1425 13.1393 34.5751 16.7546 34.5751 16.7546L37.3944 20.8607L34.4399 24.9225Z" fill="url(#paint0_linear_4362_61485)"/>
<path d="M40.3488 24.9225C40.3488 24.9225 43.3669 29.2963 44.8983 31.4387L45.7542 32.644H52.1051L43.4569 20.8607L51.655 9.61328H45.1687L43.9524 11.3093C42.6464 13.1393 40.2138 16.7547 40.2138 16.7547L37.3945 20.8607L40.3488 24.9225Z" fill="url(#paint1_linear_4362_61485)"/>
<path d="M226.703 4.7883C226.713 4.0096 226.954 3.25101 227.396 2.60726C227.839 1.9635 228.462 1.46309 229.19 1.16852C229.917 0.873951 230.716 0.798267 231.487 0.950924C232.257 1.10358 232.966 1.47781 233.523 2.02689C234.08 2.57596 234.462 3.27555 234.621 4.0383C234.779 4.80105 234.707 5.59318 234.414 6.31573C234.121 7.03833 233.62 7.65933 232.973 8.10125C232.326 8.54317 231.561 8.78638 230.775 8.80056C230.239 8.81452 229.705 8.7205 229.206 8.52409C228.707 8.32771 228.254 8.03308 227.873 7.65798C227.492 7.28292 227.192 6.83519 226.991 6.34194C226.79 5.8487 226.692 5.32014 226.703 4.7883Z" fill="url(#paint2_radial_4362_61485)"/>
</g>
<defs>
<linearGradient id="paint0_linear_4362_61485" x1="23.5105" y1="30.382" x2="36.814" y2="29.6462" gradientUnits="userSpaceOnUse">
<stop stop-color="#0F82FF"/>
<stop offset="1" stop-color="#2DAAFF"/>
</linearGradient>
<linearGradient id="paint1_linear_4362_61485" x1="44.75" y1="32.3921" x2="44.75" y2="9.66585" gradientUnits="userSpaceOnUse">
<stop stop-color="#00B48C"/>
<stop offset="1" stop-color="#00E6A0"/>
</linearGradient>
<radialGradient id="paint2_radial_4362_61485" cx="0" cy="0" r="1" gradientUnits="userSpaceOnUse" gradientTransform="translate(233.622 1.02812) scale(8.92091 8.83964)">
<stop offset="0.3667" stop-color="#00E6A0"/>
<stop offset="1" stop-color="#00B48C"/>
</radialGradient>
<clipPath id="clip0_4362_61485">
<rect width="235" height="32.9" fill="white" transform="translate(0 0.549805)"/>
</clipPath>
</defs>
</svg>
