<svg width="496" height="49" viewBox="0 0 496 49" fill="none" xmlns="http://www.w3.org/2000/svg">
<path d="M85.5005 7.2238H63.7469V1.05249H114.89V7.2238H93.0644V39.7818C93.0651 41.8525 92.2886 43.8482 90.8883 45.3751C89.488 46.902 87.5656 47.849 85.5005 48.0294V7.2238Z" fill="white"/>
<path d="M85.5005 7.2238H63.7469V1.05249H114.89V7.2238H93.0644V39.7818C93.0651 41.8525 92.2886 43.8482 90.8883 45.3751C89.488 46.902 87.5656 47.849 85.5005 48.0294V7.2238Z" fill="url(#paint0_linear_3502_336)"/>
<path d="M145.204 48.0285V1.0228H186.199C186.018 2.69772 185.224 4.24669 183.969 5.37237C182.714 6.49805 181.087 7.12114 179.4 7.12202H152.753V21.1661H173.15V27.1211H152.753V41.9293H180.368C182.054 41.9302 183.681 42.5533 184.936 43.679C186.191 44.8046 186.985 46.3536 187.167 48.0285H145.204Z" fill="white"/>
<path d="M145.204 48.0285V1.0228H186.199C186.018 2.69772 185.224 4.24669 183.969 5.37237C182.714 6.49805 181.087 7.12114 179.4 7.12202H152.753V21.1661H173.15V27.1211H152.753V41.9293H180.368C182.054 41.9302 183.681 42.5533 184.936 43.679C186.191 44.8046 186.985 46.3536 187.167 48.0285H145.204Z" fill="url(#paint1_linear_3502_336)"/>
<path d="M408.96 48.0285L404.11 36.8106H378.906L374.128 48.0285H366.435L387.611 1.0228H395.536L416.784 48.0285H408.96ZM381.331 31.2016H401.743L391.508 7.46806L381.331 31.2016Z" fill="white"/>
<path d="M408.96 48.0285L404.11 36.8106H378.906L374.128 48.0285H366.435L387.611 1.0228H395.536L416.784 48.0285H408.96ZM381.331 31.2016H401.743L391.508 7.46806L381.331 31.2016Z" fill="url(#paint2_linear_3502_336)"/>
<path d="M448.728 48.0296V1.02386H475.043C478.706 0.942459 482.345 1.63017 485.725 3.04251C488.526 4.21272 490.913 6.19074 492.582 8.72358C494.218 11.3658 495.046 14.4279 494.964 17.5336C495.05 20.7252 494.164 23.8679 492.423 26.5454C490.622 29.1252 488.065 31.0846 485.105 32.1544L484.238 32.486L495.094 48.0296C492.463 47.8199 489.913 47.0311 487.624 45.7197C485.335 44.4084 483.366 42.6071 481.857 40.4453L477.209 33.827H476.79C476.195 33.8816 475.597 33.9057 475 33.8991H456.234V48.0296H448.728ZM456.292 27.9441H474.625C478.71 27.9441 481.842 27.0356 484.022 25.2621C485.127 24.3113 485.999 23.1204 486.572 21.7808C487.145 20.4412 487.403 18.9884 487.328 17.5336C487.407 16.0847 487.149 14.6373 486.576 13.3041C486.003 11.971 485.128 10.7882 484.022 9.84825C481.286 7.91544 477.969 6.97894 474.625 7.19517H456.292V27.9441Z" fill="white"/>
<path d="M448.728 48.0296V1.02386H475.043C478.706 0.942459 482.345 1.63017 485.725 3.04251C488.526 4.21272 490.913 6.19074 492.582 8.72358C494.218 11.3658 495.046 14.4279 494.964 17.5336C495.05 20.7252 494.164 23.8679 492.423 26.5454C490.622 29.1252 488.065 31.0846 485.105 32.1544L484.238 32.486L495.094 48.0296C492.463 47.8199 489.913 47.0311 487.624 45.7197C485.335 44.4084 483.366 42.6071 481.857 40.4453L477.209 33.827H476.79C476.195 33.8816 475.597 33.9057 475 33.8991H456.234V48.0296H448.728ZM456.292 27.9441H474.625C478.71 27.9441 481.842 27.0356 484.022 25.2621C485.127 24.3113 485.999 23.1204 486.572 21.7808C487.145 20.4412 487.403 18.9884 487.328 17.5336C487.407 16.0847 487.149 14.6373 486.576 13.3041C486.003 11.971 485.128 10.7882 484.022 9.84825C481.286 7.91544 477.969 6.97894 474.625 7.19517H456.292V27.9441Z" fill="url(#paint3_linear_3502_336)"/>
<path d="M294.375 48.0285V1.0228H301.939V41.8572H333.133C334.836 41.8618 336.478 42.4941 337.743 43.6329C339.008 44.7717 339.808 46.3369 339.99 48.0285H294.375Z" fill="white"/>
<path d="M294.375 48.0285V1.0228H301.939V41.8572H333.133C334.836 41.8618 336.478 42.4941 337.743 43.6329C339.008 44.7717 339.808 46.3369 339.99 48.0285H294.375Z" fill="url(#paint4_linear_3502_336)"/>
<path d="M221.117 48.0285V1.0228H228.681V41.8572H259.875C261.581 41.8582 263.226 42.4889 264.494 43.6281C265.763 44.7672 266.565 46.3345 266.746 48.0285H221.117Z" fill="white"/>
<path d="M221.117 48.0285V1.0228H228.681V41.8572H259.875C261.581 41.8582 263.226 42.4889 264.494 43.6281C265.763 44.7672 266.565 46.3345 266.746 48.0285H221.117Z" fill="url(#paint5_linear_3502_336)"/>
<path d="M20.1529 48.7514C18.7094 48.7514 17.136 48.6793 15.4615 48.5495V42.4647C17.1793 42.6234 18.8826 42.7243 20.1529 42.7243C23.092 42.9172 26.0255 42.2721 28.6118 40.8642C29.5258 40.3473 30.2857 39.5968 30.8133 38.6896C31.341 37.7825 31.6174 36.7514 31.6143 35.7023C31.6369 34.9545 31.4933 34.2111 31.1937 33.5254C30.8942 32.8398 30.4463 32.229 29.8821 31.737C28.3588 30.6123 26.6553 29.7542 24.8443 29.1993C23.9204 28.8821 22.2893 28.5504 20.5138 28.19C19.2868 27.9304 18.0165 27.6565 16.9339 27.3969C15.8513 27.1374 14.7109 26.8922 13.686 26.6615C11.6909 26.2841 9.72333 25.7734 7.79655 25.1331C5.6736 24.2878 3.78675 22.9422 2.29682 21.2112C0.685464 19.2034 -0.126749 16.672 0.0160877 14.1027C0.00435268 11.6471 0.722788 9.24325 2.0803 7.19596C3.69534 5.00327 5.87539 3.28907 8.38839 2.23584C9.19675 1.88979 10.034 1.57259 10.8423 1.31305H11.0011C13.8844 0.419574 16.8887 -0.0230385 19.9075 0.000923209C23.9603 0.0262066 27.9839 0.687927 31.8308 1.96188L33.0578 2.38004L33.3032 2.48098L37.3161 4.15359C34.7611 5.78293 31.903 7.57087 30.012 7.57087C29.8247 7.58729 29.6363 7.58729 29.4491 7.57087C29.2181 7.57087 28.0922 7.32576 27.4715 7.22483L27.024 7.15271C24.4678 6.48928 21.841 6.13591 19.2002 6.10015C13.5417 6.10015 10.8712 8.04671 10.3949 8.43602C9.50714 9.01153 8.77784 9.79994 8.27355 10.7293C7.76925 11.6587 7.50602 12.6995 7.50786 13.7566C7.48891 14.4961 7.63294 15.2308 7.92979 15.9085C8.22663 16.5863 8.66903 17.1906 9.22563 17.6786C10.4097 18.6827 11.7844 19.4379 13.2674 19.8991C14.8553 20.4326 19.8787 21.5717 22.4625 22.0331C25.4206 22.4398 28.3251 23.1699 31.1235 24.2104C33.2861 25.051 35.2162 26.3957 36.7532 28.1323C38.3569 30.0993 39.1699 32.5923 39.0339 35.1255C39.0607 37.5676 38.3461 39.9606 36.9841 41.9889C35.401 44.2054 33.2105 45.9178 30.676 46.9202C27.3331 48.252 23.7497 48.8756 20.1529 48.7514Z" fill="white"/>
<path d="M20.1529 48.7514C18.7094 48.7514 17.136 48.6793 15.4615 48.5495V42.4647C17.1793 42.6234 18.8826 42.7243 20.1529 42.7243C23.092 42.9172 26.0255 42.2721 28.6118 40.8642C29.5258 40.3473 30.2857 39.5968 30.8133 38.6896C31.341 37.7825 31.6174 36.7514 31.6143 35.7023C31.6369 34.9545 31.4933 34.2111 31.1937 33.5254C30.8942 32.8398 30.4463 32.229 29.8821 31.737C28.3588 30.6123 26.6553 29.7542 24.8443 29.1993C23.9204 28.8821 22.2893 28.5504 20.5138 28.19C19.2868 27.9304 18.0165 27.6565 16.9339 27.3969C15.8513 27.1374 14.7109 26.8922 13.686 26.6615C11.6909 26.2841 9.72333 25.7734 7.79655 25.1331C5.6736 24.2878 3.78675 22.9422 2.29682 21.2112C0.685464 19.2034 -0.126749 16.672 0.0160877 14.1027C0.00435268 11.6471 0.722788 9.24325 2.0803 7.19596C3.69534 5.00327 5.87539 3.28907 8.38839 2.23584C9.19675 1.88979 10.034 1.57259 10.8423 1.31305H11.0011C13.8844 0.419574 16.8887 -0.0230385 19.9075 0.000923209C23.9603 0.0262066 27.9839 0.687927 31.8308 1.96188L33.0578 2.38004L33.3032 2.48098L37.3161 4.15359C34.7611 5.78293 31.903 7.57087 30.012 7.57087C29.8247 7.58729 29.6363 7.58729 29.4491 7.57087C29.2181 7.57087 28.0922 7.32576 27.4715 7.22483L27.024 7.15271C24.4678 6.48928 21.841 6.13591 19.2002 6.10015C13.5417 6.10015 10.8712 8.04671 10.3949 8.43602C9.50714 9.01153 8.77784 9.79994 8.27355 10.7293C7.76925 11.6587 7.50602 12.6995 7.50786 13.7566C7.48891 14.4961 7.63294 15.2308 7.92979 15.9085C8.22663 16.5863 8.66903 17.1906 9.22563 17.6786C10.4097 18.6827 11.7844 19.4379 13.2674 19.8991C14.8553 20.4326 19.8787 21.5717 22.4625 22.0331C25.4206 22.4398 28.3251 23.1699 31.1235 24.2104C33.2861 25.051 35.2162 26.3957 36.7532 28.1323C38.3569 30.0993 39.1699 32.5923 39.0339 35.1255C39.0607 37.5676 38.3461 39.9606 36.9841 41.9889C35.401 44.2054 33.2105 45.9178 30.676 46.9202C27.3331 48.252 23.7497 48.8756 20.1529 48.7514Z" fill="url(#paint6_linear_3502_336)"/>
<defs>
<linearGradient id="paint0_linear_3502_336" x1="27.9667" y1="-10.5603" x2="59.5018" y2="71.0321" gradientUnits="userSpaceOnUse">
<stop offset="0.214916" stop-color="#090F28"/>
<stop offset="0.641075" stop-color="#0F2D47"/>
<stop offset="0.923084" stop-color="#85797C"/>
<stop offset="1" stop-color="#DFB2A4"/>
</linearGradient>
<linearGradient id="paint1_linear_3502_336" x1="115.847" y1="-10.5971" x2="152.036" y2="66.1832" gradientUnits="userSpaceOnUse">
<stop offset="0.214916" stop-color="#090F28"/>
<stop offset="0.641075" stop-color="#0F2D47"/>
<stop offset="0.923084" stop-color="#85797C"/>
<stop offset="1" stop-color="#DFB2A4"/>
</linearGradient>
<linearGradient id="paint2_linear_3502_336" x1="331.21" y1="-10.5971" x2="363.144" y2="70.6962" gradientUnits="userSpaceOnUse">
<stop offset="0.214916" stop-color="#090F28"/>
<stop offset="0.641075" stop-color="#0F2D47"/>
<stop offset="0.923084" stop-color="#85797C"/>
<stop offset="1" stop-color="#DFB2A4"/>
</linearGradient>
<linearGradient id="paint3_linear_3502_336" x1="416.291" y1="-10.6041" x2="450.166" y2="68.7944" gradientUnits="userSpaceOnUse">
<stop offset="0.214916" stop-color="#090F28"/>
<stop offset="0.641075" stop-color="#0F2D47"/>
<stop offset="0.923084" stop-color="#85797C"/>
<stop offset="1" stop-color="#DFB2A4"/>
</linearGradient>
<linearGradient id="paint4_linear_3502_336" x1="262.463" y1="-10.5971" x2="296.712" y2="68.3903" gradientUnits="userSpaceOnUse">
<stop offset="0.214916" stop-color="#090F28"/>
<stop offset="0.641075" stop-color="#0F2D47"/>
<stop offset="0.923084" stop-color="#85797C"/>
<stop offset="1" stop-color="#DFB2A4"/>
</linearGradient>
<linearGradient id="paint5_linear_3502_336" x1="189.195" y1="-10.5971" x2="223.437" y2="68.3982" gradientUnits="userSpaceOnUse">
<stop offset="0.214916" stop-color="#090F28"/>
<stop offset="0.641075" stop-color="#0F2D47"/>
<stop offset="0.923084" stop-color="#85797C"/>
<stop offset="1" stop-color="#DFB2A4"/>
</linearGradient>
<linearGradient id="paint6_linear_3502_336" x1="-27.3187" y1="-12.0552" x2="12.7699" y2="64.2323" gradientUnits="userSpaceOnUse">
<stop offset="0.214916" stop-color="#090F28"/>
<stop offset="0.641075" stop-color="#0F2D47"/>
<stop offset="0.923084" stop-color="#85797C"/>
<stop offset="1" stop-color="#DFB2A4"/>
</linearGradient>
</defs>
</svg>
