<svg width="501" height="192" viewBox="0 0 501 192" fill="none" xmlns="http://www.w3.org/2000/svg">
<path d="M338.367 151.979V165.021H388.689V171.537H338.367V182.95H390.36V191.096H326.625V143.833L390.36 143.85V151.979H338.367Z" fill="#D9D9D9"/>
<path d="M285.595 143.85L256.765 191.096H243.19L214.359 143.833H226.229L250.011 182.427L273.725 143.833L285.595 143.85Z" fill="#D9D9D9"/>
<path d="M121.18 151.979V165.021H171.493V171.537H121.18V182.95H173.173V191.096H109.438V143.833L173.173 143.85V151.979H121.18Z" fill="#D9D9D9"/>
<path d="M12.6176 151.979V165.021H62.9305V171.538H12.6176V191.097H0.875V143.833L64.6105 143.85V151.979H12.6176Z" fill="#D9D9D9"/>
<path d="M495.846 175.699L491.552 173.546L495.905 171.506C497.882 170.571 498.968 169.688 499.655 168.427C500.487 166.91 500.877 164.62 500.877 161.225C500.877 156.32 500.682 153.267 500.215 151.021C499.757 148.783 499.036 147.351 497.882 146.39C496.686 145.396 494.827 144.753 492.045 144.358C489.355 143.972 485.834 143.818 479.895 143.818H433.383V191.09H445.091V178.691H489.482V191.09H500.86V187.763C500.801 183.039 500.41 180.218 499.604 178.606C498.951 177.302 498.026 176.796 495.837 175.69L495.846 175.699ZM489.423 169.894H445.1V151.955H489.423V169.894Z" fill="#D9D9D9"/>
<path d="M250.234 21.6807H285.594V0.465057H250.234V21.6807Z" fill="#D9D9D9"/>
<path d="M214.875 71.1838H250.234V49.9682H214.875V71.1838Z" fill="#D9D9D9"/>
<path d="M214.875 35.8244H250.234V21.6807H214.875V35.8244Z" fill="#D9D9D9"/>
<path d="M250.234 49.9682L285.594 49.9682V35.8244H250.234V49.9682Z" fill="#D9D9D9"/>
</svg>
